<svg width="101" height="22" viewBox="0 0 101 22" fill="none" xmlns="http://www.w3.org/2000/svg">
<path d="M6.048 0.623998H26.1V21H21.42V2.064L23.58 4.224H8.388L10.404 2.568C10.524 4.056 10.62 5.472 10.692 6.816C10.788 8.136 10.836 9.324 10.836 10.38C10.836 14.22 10.296 17.016 9.216 18.768C8.136 20.52 6.396 21.396 3.996 21.396C3.348 21.396 2.724 21.324 2.124 21.18C1.524 21.036 0.948 20.808 0.396 20.496V17.004C0.828 17.172 1.248 17.304 1.656 17.4C2.088 17.496 2.484 17.544 2.844 17.544C4.164 17.544 5.112 16.932 5.688 15.708C6.288 14.484 6.588 12.492 6.588 9.732C6.588 8.532 6.54 7.164 6.444 5.628C6.372 4.092 6.24 2.424 6.048 0.623998ZM42.334 21.504C39.862 21.504 37.69 21.06 35.818 20.172C33.97 19.26 32.518 18 31.462 16.392C30.43 14.784 29.914 12.924 29.914 10.812C29.914 8.676 30.43 6.816 31.462 5.232C32.518 3.624 33.97 2.376 35.818 1.488C37.69 0.575998 39.862 0.119998 42.334 0.119998C44.806 0.119998 46.966 0.575998 48.814 1.488C50.686 2.376 52.138 3.624 53.17 5.232C54.226 6.816 54.754 8.676 54.754 10.812C54.754 12.924 54.226 14.784 53.17 16.392C52.138 18 50.686 19.26 48.814 20.172C46.966 21.06 44.806 21.504 42.334 21.504ZM42.334 17.832C43.918 17.832 45.274 17.544 46.402 16.968C47.554 16.392 48.442 15.588 49.066 14.556C49.69 13.5 50.002 12.252 50.002 10.812C50.002 9.372 49.69 8.136 49.066 7.104C48.442 6.048 47.554 5.232 46.402 4.656C45.274 4.08 43.918 3.792 42.334 3.792C40.774 3.792 39.418 4.08 38.266 4.656C37.114 5.232 36.226 6.048 35.602 7.104C34.978 8.136 34.666 9.372 34.666 10.812C34.666 12.252 34.978 13.5 35.602 14.556C36.226 15.588 37.114 16.392 38.266 16.968C39.418 17.544 40.774 17.832 42.334 17.832ZM74.6502 0.623998V4.296H61.0782L63.2382 2.136V21H58.5582V0.623998H74.6502ZM87.9668 21.504C85.4948 21.504 83.3228 21.06 81.4508 20.172C79.6028 19.26 78.1508 18 77.0948 16.392C76.0628 14.784 75.5468 12.924 75.5468 10.812C75.5468 8.676 76.0628 6.816 77.0948 5.232C78.1508 3.624 79.6028 2.376 81.4508 1.488C83.3228 0.575998 85.4948 0.119998 87.9668 0.119998C90.4388 0.119998 92.5988 0.575998 94.4468 1.488C96.3188 2.376 97.7708 3.624 98.8028 5.232C99.8588 6.816 100.387 8.676 100.387 10.812C100.387 12.924 99.8588 14.784 98.8028 16.392C97.7708 18 96.3188 19.26 94.4468 20.172C92.5988 21.06 90.4388 21.504 87.9668 21.504ZM87.9668 17.832C89.5508 17.832 90.9068 17.544 92.0348 16.968C93.1868 16.392 94.0748 15.588 94.6988 14.556C95.3228 13.5 95.6348 12.252 95.6348 10.812C95.6348 9.372 95.3228 8.136 94.6988 7.104C94.0748 6.048 93.1868 5.232 92.0348 4.656C90.9068 4.08 89.5508 3.792 87.9668 3.792C86.4068 3.792 85.0508 4.08 83.8988 4.656C82.7468 5.232 81.8588 6.048 81.2348 7.104C80.6108 8.136 80.2988 9.372 80.2988 10.812C80.2988 12.252 80.6108 13.5 81.2348 14.556C81.8588 15.588 82.7468 16.392 83.8988 16.968C85.0508 17.544 86.4068 17.832 87.9668 17.832Z" fill="#D7D2D2"/>
</svg>
